<svg id="Layer_1" data-name="Layer 1" xmlns="http://www.w3.org/2000/svg" viewBox="0 0 64 64"><path d="M36,14H22a3,3,0,0,0-3,3V41a3,3,0,0,0,3,3H36a3,3,0,0,0,3-3V17A3,3,0,0,0,36,14Zm-4.387,2-.334,1H26.721l-.334-1ZM37,41a1,1,0,0,1-1,1H22a1,1,0,0,1-1-1V17a1,1,0,0,1,1-1h2.279l.544,1.633A2,2,0,0,0,26.721,19h4.558a2,2,0,0,0,1.9-1.367L33.721,16H36a1,1,0,0,1,1,1Z" id="id_106" style="fill: rgb(255, 255, 255);"></path><rect x="23" y="38" width="7" height="2" id="id_107" style="fill: rgb(255, 255, 255);"></rect><rect x="32" y="38" width="3" height="2" id="id_108" style="fill: rgb(255, 255, 255);"></rect><path d="M25,36h8a1,1,0,0,0,1-1V30.4a3.4,3.4,0,0,0-2.662-3.314,3.5,3.5,0,1,0-4.676,0A3.4,3.4,0,0,0,24,30.4V35A1,1,0,0,0,25,36Zm4-13a1.5,1.5,0,1,1-1.5,1.5A1.5,1.5,0,0,1,29,23Zm-3,7.4A1.4,1.4,0,0,1,27.4,29h3.2A1.4,1.4,0,0,1,32,30.4V34H26Z" id="id_109" style="fill: rgb(255, 255, 255);"></path><path d="M45.263,12.736a22.989,22.989,0,1,0,0,32.528A23.028,23.028,0,0,0,45.263,12.736ZM43.849,43.85a20.99,20.99,0,1,1,0-29.7A21.028,21.028,0,0,1,43.849,43.85Z" id="id_110" style="fill: rgb(255, 255, 255);"></path><path d="M58.7,45.971a1,1,0,0,0,0-1.414l-4.129-4.13A27.981,27.981,0,1,0,40.427,54.569l4.13,4.129a1,1,0,0,0,1.414,0l2.105-2.1L54.293,62.8l1.414-1.416-6.217-6.2,5.657-5.657,6.2,6.186,1.413-1.416-6.2-6.185ZM29,55A26,26,0,0,1,10.615,10.615a26,26,0,0,1,36.77,36.77A25.833,25.833,0,0,1,29,55Zm16.264,1.577-2.94-2.939A28.242,28.242,0,0,0,53.638,42.324l2.939,2.94Z" id="id_111" style="fill: rgb(255, 255, 255);"></path></svg>